HIERARCHY
ROOT Hips
{
  OFFSET 177.927 92.4236 173.528
  CHANNELS 6 Xposition Yposition Zposition Zrotation Xrotation Yrotation
  JOINT ToSpine
  {
    OFFSET -2.69724 7.43032 -0.144315
    CHANNELS 3 Zrotation Xrotation Yrotation
    JOINT Spine
    {
      OFFSET -0.0310711 10.7595 1.96963
      CHANNELS 3 Zrotation Xrotation Yrotation
      JOINT Spine1
      {
        OFFSET 13.1342 3.43533 0.764692
        CHANNELS 3 Zrotation Xrotation Yrotation
        JOINT Neck
        {
          OFFSET 29.8703 7.82586 -0.130764
          CHANNELS 3 Zrotation Xrotation Yrotation
          JOINT Head
          {
            OFFSET 9.52751 0.295786 -0.907742
            CHANNELS 3 Zrotation Xrotation Yrotation
            End Site
            {
              OFFSET 16.4037 0.713936 2.7358
            }
          }
        }
        JOINT LeftShoulder
        {
          OFFSET 27.5574 4.95586 2.47156
          CHANNELS 3 Zrotation Xrotation Yrotation
          JOINT LeftArm
          {
            OFFSET 1.20734 -0.998971 20.1238
            CHANNELS 3 Zrotation Xrotation Yrotation
            JOINT LeftForeArm
            {
              OFFSET 26.8049 -0.0536703 -0.155908
              CHANNELS 3 Zrotation Xrotation Yrotation
              JOINT LeftHand
              {
                OFFSET 26.6817 0 0.320147
                CHANNELS 3 Zrotation Xrotation Yrotation
                End Site
                {
                  OFFSET 18.6119 0 0.382219
                }
              }
            }
          }
        }
        JOINT RightShoulder
        {
          OFFSET 27.5927 4.71444 -2.65209
          CHANNELS 3 Zrotation Xrotation Yrotation
          JOINT RightArm
          {
            OFFSET 2.83739 -1.17114 -18.7564
            CHANNELS 3 Zrotation Xrotation Yrotation
            JOINT RightForeArm
            {
              OFFSET 28.839 -0.0548439 1.22491
              CHANNELS 3 Zrotation Xrotation Yrotation
              JOINT RightHand
              {
                OFFSET 26.5114 0 -0.101894
                CHANNELS 3 Zrotation Xrotation Yrotation
                End Site
                {
                  OFFSET 18.2168 0 0
                }
              }
            }
          }
        }
      }
    }
  }
  JOINT LeftUpLeg
  {
    OFFSET -4.76168 -1.9167 -10.2353
    CHANNELS 3 Zrotation Xrotation Yrotation
    JOINT LeftLeg
    {
      OFFSET 2.55951 -42.0585 -8.02213
      CHANNELS 3 Zrotation Xrotation Yrotation
      JOINT LeftFoot
      {
        OFFSET 3.16357 -42.5282 -3.95426
        CHANNELS 3 Zrotation Xrotation Yrotation
        JOINT LeftToeBase
        {
          OFFSET 0.346054 -6.02161 12.8035
          CHANNELS 3 Zrotation Xrotation Yrotation
          End Site
          {
            OFFSET 0.134235 -1.35082 5.13018
          }
        }
      }
    }
  }
  JOINT RightUpLeg
  {
    OFFSET -4.94151 -1.41743 10.6446
    CHANNELS 3 Zrotation Xrotation Yrotation
    JOINT RightLeg
    {
      OFFSET -2.56294 -42.0364 -7.94377
      CHANNELS 3 Zrotation Xrotation Yrotation
      JOINT RightFoot
      {
        OFFSET -3.0952 -42.555 -4.02241
        CHANNELS 3 Zrotation Xrotation Yrotation
        JOINT RightToeBase
        {
          OFFSET -0.0828122 -6.13587 12.8035
          CHANNELS 3 Zrotation Xrotation Yrotation
          End Site
          {
            OFFSET -0.131328 -1.35082 5.13018
          }
        }
      }
    }
  }
}
MOTION
Frames:	11
Frame Time:	0.0333333
43.1186 94.4737 -64.791 -11.7037 -70.2698 -100.429 -70.1915 0 88.8779 83.1708 72.8107 8.95823 4.6727 23.1221 -1.53934 -155.062 21.1683 174.891 -155.313 60.5275 -171.971 -0.382412 -15.8436 -35.9931 -75.9509 47.353 -78.1955 9.55636 22.6514 -27.0996 0.420957 0.000575478 0.35866 -2.09325 7.02024 44.1776 -75.6465 -32.0299 88.0988 14.4322 -17.1626 41.094 0.58676 0.00033112 0.0646653 -31.0122 0.699807 95.1371 -1.83173 27.7649 -7.79116 -1.67714 -4.97472 -0.33695 6.80218 -15.3434 12.6943 -62.5727 7.14444 88.4887 0.617471 35.2982 5.28179 -3.27509 -14.6254 1.29909 1.90454 -14.4557 -3.84355 
43.7094 93.9469 -59.8749 -11.1379 -71.5865 -100.957 -70.1915 0 88.8779 82.7968 72.8905 7.051 4.65571 23.0612 -0.934349 -154.397 21.0204 174.411 -155.16 60.3486 -172.464 -0.276271 -15.4086 -36.0853 -76.7866 47.2836 -77.1281 10.2201 24.6975 -27.0796 0.420957 0.000575478 0.35866 -2.10582 6.9705 44.5662 -77.5411 -32.0686 85.7198 15.0278 -17.3274 42.0295 0.58676 0.00033112 0.0646653 -32.2654 -0.740088 96.5841 -2.30866 32.7615 -8.97311 0.850739 -3.38561 -0.439811 5.00013 -11.5855 5.50538 -63.6193 5.7546 91.1115 2.06762 41.4414 1.61116 -1.74745 -10.6647 1.04185 2.68028 -21.3002 0.97135 
44.4482 93.6244 -55.016 -9.29665 -71.8796 -100.45 -70.1915 0 88.8779 77.4331 72.4597 10.7365 5.58193 22.8254 -1.1853 -153.947 20.7334 174.81 -156.848 60.1865 -171.114 -0.223141 -15.1563 -36.3222 -76.6952 47.132 -76.881 9.76654 24.3205 -26.8202 0.420957 0.000575478 0.35866 -2.14611 6.83094 45.7502 -77.7481 -31.2961 84.7999 14.0826 -17.2332 40.2652 0.58676 0.00033112 0.0646653 -32.6783 -2.92392 96.6659 -2.30994 37.2964 -5.9887 4.5023 -3.58027 -0.809471 3.68256 -8.4537 2.20585 -60.4808 2.63266 89.5164 3.04003 51.2439 0.742604 -2.11732 -0.394384 0.443607 4.96312 -30.5051 8.83334 
45.0546 93.5234 -50.3455 -6.96041 -72.2555 -98.475 -70.1915 0 88.8779 75.8853 72.0946 11.1335 5.74269 22.4382 -0.947671 -153.5 20.2406 174.538 -155.377 59.508 -173.154 -0.326073 -15.5693 -36.2569 -78.3849 46.8411 -75.9153 9.52562 25.561 -26.2407 0.420957 0.000575478 0.35866 -2.08342 6.81954 44.9188 -77.5194 -32.8791 84.2656 12.4956 -16.6546 37.7436 0.58676 0.00033112 0.0646653 -34.1721 -4.72208 95.6668 -2.71834 40.8493 -6.94875 2.85231 -8.32052 -0.906325 0.483218 -3.26876 6.10011 -55.2744 1.43246 89.3194 5.52162 61.9609 0.908292 -4.12104 9.93468 0.272953 4.48591 -30.9727 4.14861 
45.5469 93.7266 -46.0655 -7.07338 -72.551 -100.29 -70.1915 0 88.8779 76.4191 72.3495 7.7449 4.8645 22.4198 -0.325355 -153.708 19.0271 174.4 -154.703 58.16 -174.361 -0.331353 -15.6897 -35.7659 -77.0094 46.8199 -77.2834 9.37385 24.2205 -26.4874 0.420957 0.000575478 0.35866 -2.06306 6.68866 45.2222 -76.191 -33.1446 84.5251 11.1948 -16.0615 35.6292 0.58676 0.00033112 0.0646653 -37.2091 -6.18209 97.5248 -2.72358 41.1399 -6.66365 4.47343 -10.6666 -1.09226 -0.429306 -0.718104 3.91716 -49.0029 0.0931078 91.2248 7.53714 70.1278 -6.42881 -7.00199 7.19463 0.935426 4.32367 -29.5673 5.01057 
46.1168 94.2345 -41.9463 -8.06227 -72.4812 -102.052 -70.1915 0 88.8779 77.4508 72.0583 5.97058 4.85405 22.1962 -1.23905 -154.112 17.4234 174.797 -155.653 56.5941 -173.879 -0.328853 -15.7464 -35.4475 -75.3601 46.105 -79.4078 9.93503 23.8407 -27.1016 0.420957 0.000575478 0.35866 -2.14019 6.5819 46.8365 -73.5893 -32.0756 85.7816 9.97781 -15.4653 33.4897 0.58676 0.00033112 0.0646653 -40.4142 -7.03111 98.686 -2.63145 40.2935 -6.40037 6.3983 -11.9841 -1.19113 -0.166795 -0.881463 2.97281 -42.6054 0.486669 93.4348 7.90923 72.4349 -9.99223 -5.82952 1.42452 0.864517 3.18656 -23.5177 4.82756 
46.8001 94.7327 -37.5741 -5.66967 -72.0947 -98.1906 -70.1915 0 88.8779 78.1199 70.8183 6.94382 5.14078 21.0048 -1.79616 -153.434 16.1286 176.046 -155.38 55.2534 -173.392 -0.449189 -16.1161 -35.9458 -77.0805 44.4758 -79.5543 8.65793 23.7649 -25.9901 0.420957 0.000575478 0.35866 -2.05231 6.49756 45.9634 -71.2293 -33.6801 86.9628 9.17205 -15.4026 31.3846 0.58676 0.00033112 0.0646653 -43.0824 -7.4662 96.6437 -2.49823 39.72 -5.48738 6.51286 -14.3072 -1.24709 -1.12322 1.14479 2.81779 -38.0939 0.833191 91.5391 5.58052 67.9363 -8.02103 -5.01712 -3.24596 0.907033 2.7224 -21.1606 3.28667 
47.4562 95.0881 -33.1625 -2.36049 -72.0997 -94.3444 -70.1915 0 88.8779 80.2696 70.1825 5.05685 4.55623 20.242 -1.59864 -152.289 14.954 176.56 -153.753 53.9093 -173.813 -0.619993 -16.7442 -36.1181 -76.1277 43.3761 -81.2293 8.76044 22.5311 -26.4229 0.420957 0.000575478 0.35866 -1.98222 6.29172 45.921 -71.4212 -34.4006 85.3973 8.87826 -14.9951 31.2065 0.58676 0.00033112 0.0646653 -46.4157 -8.61762 94.7121 -2.25713 39.0475 -3.73154 7.61269 -15.254 -1.26234 -0.163938 1.12565 -1.75964 -35.5166 1.26871 91.2864 3.79862 59.796 -3.71601 -6.19922 -5.46039 1.08008 2.56557 -24.2942 -8.66045 
47.8852 95.0314 -28.7288 -0.523791 -71.3197 -92.0431 -70.1915 0 88.8779 78.899 69.6685 6.29358 4.36939 19.6359 -0.85916 -152.156 13.8423 176.811 -152.355 52.5556 -175.119 -0.578904 -16.7326 -35.5056 -72.7211 43.0226 -84.754 9.06948 19.3409 -27.8155 0.420957 0.000575478 0.35866 -1.90928 6.04488 46.0409 -72.542 -34.6968 83.2402 8.4143 -13.9634 31.5884 0.58676 0.00033112 0.0646653 -49.2656 -9.00202 94.0049 -2.10427 37.3292 -3.8886 8.3175 -17.0663 -1.27052 0.217023 -0.0527377 -1.05093 -33.121 1.5717 91.0162 2.09333 49.0054 -2.72736 -5.1455 -6.35648 1.02285 2.51698 -25.5902 -10.3507 
48.3878 95.0257 -24.06 1.63497 -70.6996 -89.9227 -70.1915 0 88.8779 75.7513 69.0693 8.79098 4.89919 19.0217 -0.082253 -152.511 12.7754 177.53 -152.332 51.4399 -175.06 -0.575516 -16.7999 -35.183 -71.9326 42.4463 -86.3097 8.84479 15.9468 -29.4324 0.420957 0.000575478 0.35866 -1.97444 6.20131 46.254 -73.9811 -34.9089 80.6329 9.01333 -14.6737 32.1218 0.58676 0.00033112 0.0646653 -52.2348 -9.36055 94.7675 -2.05208 36.7374 -6.67791 8.70752 -17.5059 -1.26321 0.156442 -1.39972 2.59943 -32.6081 1.4062 91.4218 1.55057 35.7161 1.54464 -6.76086 -4.48817 1.10794 2.51818 -27.7395 -11.2005 
48.8457 94.7185 -19.3984 5.52034 -70.1156 -85.2737 -70.1915 0 88.8779 74.6701 68.127 9.91649 5.39072 17.9247 0.950048 -153.917 11.9233 179.367 -154.239 50.7872 -173.617 -0.571545 -16.7956 -35.1364 -74.0814 41.4691 -85.7565 9.82166 15.8524 -31.9836 0.420957 0.000575478 0.35866 -1.982 6.11446 46.8142 -75.1163 -34.0785 78.4537 8.58512 -13.6055 32.7664 0.58676 0.00033112 0.0646653 -55.1049 -8.77155 95.3064 -1.85714 36.322 -8.75181 9.1996 -18.7678 -1.2487 0.690095 -2.67718 3.12313 -32.8874 1.4886 88.6455 -0.962933 23.2721 13.2484 0.631089 -5.25716 0.498252 2.49389 -26.1351 -10.9285 
